# xmcd
#
# Track frame offsets:
#   150
#   17905
#   31620
#   45909
#   68210
#   78513
#   93145
#   114413
#   127622
#   142755
#   161267
#   179614
#   196586
#   210212
#   227552
#   241727
#   256799
#   277751
#   298685
#   316583
#
# Disc length: 4469 seconds
#
# Revision: 0
# Processed by: cddbd v1.5.2PL0 Copyright (c) Steve Scherf et al.
# Submitted via: uFREEDB ActiveX Control 1.5
#
DISCID=e4117314
DTITLE=20 SUCESSOS GAUCHAS - VOLUME 5
DYEAR=1900
DGENRE=Country
TTITLE0=O SOCADAO
TTITLE1=NAO VA
TTITLE2=TRANCACO
TTITLE3=LADAINHA
TTITLE4=NA ESTRADA
TTITLE5=NAO FAZ ISSO PRO PAI
TTITLE6=E METIRADESSES LOKO
TTITLE7=DE TODA LIDA
TTITLE8=NOSSA VANERA
TTITLE9=ACIDENTE CAMPEIRO
TTITLE10=O GUASCA E A ROQUEIRA
TTITLE11=BAILANTA DO TIO FLOR
TTITLE12=CUIDA DO MEU CORACAO
TTITLE13=CARNE BOA
TTITLE14=DE CHAPEU BOMBACHA E BOTA
TTITLE15=UMA VEIA GAUCHA
TTITLE16=REFORMANDO A MULHER VEIA
TTITLE17=BOTANDO O CORACAO NA ESTRADA
TTITLE18=AMO VOCE
TTITLE19=UPA MARUCA
EXTD=
EXTT0=
EXTT1=
EXTT2=
EXTT3=
EXTT4=
EXTT5=
EXTT6=
EXTT7=
EXTT8=
EXTT9=
EXTT10=
EXTT11=
EXTT12=
EXTT13=
EXTT14=
EXTT15=
EXTT16=
EXTT17=
EXTT18=
EXTT19=
PLAYORDER=
